<svg xmlns="http://www.w3.org/2000/svg" viewBox="0 0 24 21.563">
  <defs>
    <style>
      .cls-1 {
        fill: #003fac;
      }
    </style>
  </defs>
  <path id="calendar" class="cls-1" d="M.7,21.562a.7.7,0,0,1-.7-.7V3.047a.7.7,0,0,1,.7-.7H3.88a3.046,3.046,0,0,1,5.928,0h4.384a3.046,3.046,0,0,1,5.928,0H23.3a.7.7,0,0,1,.7.7V20.859a.7.7,0,0,1-.7.7Zm.7-1.406H22.594V3.75h-6.92a1.643,1.643,0,0,0,1.482.937.7.7,0,0,1,0,1.406A3.052,3.052,0,0,1,14.192,3.75H5.362a1.643,1.643,0,0,0,1.482.937.7.7,0,1,1,0,1.406A3.052,3.052,0,0,1,3.88,3.75H1.406ZM15.674,2.344h2.964a1.64,1.64,0,0,0-2.964,0Zm-10.313,0H8.326a1.64,1.64,0,0,0-2.964,0ZM3.141,19.125a.7.7,0,0,1-.7-.7V7.828a.7.7,0,0,1,.7-.7H20.859a.7.7,0,0,1,.7.7V18.422a.7.7,0,0,1-.7.7Zm13.945-1.406h3.07V15.594h-3.07Zm-4.43,0H15.68V15.594H12.656Zm-4.43,0H11.25V15.594H8.227Zm-4.383,0H6.82V15.594H3.844Zm13.242-3.531h3.07V12.063h-3.07Zm-4.43,0H15.68V12.063H12.656Zm-4.43,0H11.25V12.062H8.227Zm-4.383,0H6.82V12.062H3.844Zm13.242-3.531h3.07V8.531h-3.07Zm-4.43,0H15.68V8.531H12.656Zm-4.43,0H11.25V8.531H8.227Zm-4.383,0H6.82V8.531H3.844Z"/>
</svg>
