<svg xmlns="http://www.w3.org/2000/svg" viewBox="0 0 77.365 128.746">
  <defs>
    <style>
      .cls-1 {
        fill: #003fac;
      }
    </style>
  </defs>
  <g id="emblem" transform="translate(-1341.792 -1774.723)">
    <g id="g13" transform="translate(1341.792 1774.723)">
      <g id="g17" transform="translate(0)">
        <path id="path19" class="cls-1" d="M191.244,110.016l-2.564,1.47h-.034a38.168,38.168,0,0,0-6.086,4.888,43.012,43.012,0,0,0-12,22.29v.068l-3.282,28.238c-.034.171-.1.376-.137.513.445,0,1.2-.034,2.256,0a6.181,6.181,0,0,1,3.213,1.128,4.932,4.932,0,0,1,2.5,4.307,5.284,5.284,0,0,1-2.188,4.479,6.311,6.311,0,0,1-3.556,1.3,7.254,7.254,0,0,0-1.231,0,.293.293,0,0,0-.24,0c-.068-.034-.137-.034-.137,0-.034-.034-.068-.068-.068-.1a44.188,44.188,0,0,1-4.855-9.128c-.615-1.436-1.162-2.906-1.675-4.376v-.034h.034a50.91,50.91,0,0,1-1.881-6.666,53.2,53.2,0,0,1-1.162-12.2c.034-4.855.274-11.077.65-18.6.41-7.931.649-12.855.649-14.8a23.1,23.1,0,0,0-.615-5.675,21.725,21.725,0,0,0-4.684-9.333,1.837,1.837,0,0,0-.239-.308,3.511,3.511,0,0,0-.41-.445h-.034v-.034l-.034-.034-.2.274c-.068.068-.137.171-.205.239-.137.171-.2.274-.239.308a21.674,21.674,0,0,0-4.65,9.333,24.922,24.922,0,0,0-.649,5.675c.034,1.948.239,6.872.649,14.8.41,7.521.616,13.743.684,18.6a55.183,55.183,0,0,1-1.162,12.2,50.886,50.886,0,0,1-1.881,6.666h.034v.034c-.513,1.47-1.06,2.94-1.675,4.376a45.883,45.883,0,0,1-4.855,9.128c-.034.034-.034.068-.068.1-.034-.034-.068-.034-.171,0a.283.283,0,0,0-.239,0,6.9,6.9,0,0,0-1.2,0v1.2c1.675,0,2.6-.2,2.735-.649a46.078,46.078,0,0,0,4.957-9.333c.649-1.607,1.265-3.213,1.812-4.82l-.034-.034a56.624,56.624,0,0,0,1.846-6.666,57.321,57.321,0,0,0,1.2-12.2c-.034-4.855-.274-11.077-.616-18.632-.41-7.931-.581-12.854-.616-14.769a21.611,21.611,0,0,1,.649-5.3,20,20,0,0,1,3.658-7.9.1.1,0,0,0,.034-.068l.239-.239.274.239a.107.107,0,0,0,.034.068,20,20,0,0,1,3.658,7.9,21.634,21.634,0,0,1,.649,5.3q-.051,2.872-.615,14.769c-.376,7.555-.581,13.777-.649,18.632a59.6,59.6,0,0,0,1.231,12.2,50.427,50.427,0,0,0,1.812,6.666v.034c.513,1.607,1.128,3.213,1.812,4.82a44.4,44.4,0,0,0,4.957,9.333c.1.445,1.026.649,2.735.649a7.249,7.249,0,0,0,4.307-1.5,6.615,6.615,0,0,0,2.7-5.47,6.024,6.024,0,0,0-3.077-5.333,7.372,7.372,0,0,0-3.9-1.333,5.36,5.36,0,0,0-.787.034l3.179-27.384a41.086,41.086,0,0,1,11.658-21.64,33.163,33.163,0,0,1,5.914-4.717h-.068l1.641-.923v88.885h-21.2a19.652,19.652,0,0,1-7.794,12.136c-4.24,3.316-7.043,6.666-8.444,10.051q-2.1-5.077-8.513-10.051a19.455,19.455,0,0,1-7.76-12.136h-21.2V111.623l1.607.923H117.6a34.459,34.459,0,0,1,5.915,4.717,41.328,41.328,0,0,1,11.657,21.64l3.179,27.384a5.6,5.6,0,0,0-.786-.034,7.284,7.284,0,0,0-3.9,1.333,6.024,6.024,0,0,0-3.077,5.333,6.439,6.439,0,0,0,2.7,5.47,7.25,7.25,0,0,0,4.307,1.5v-1.2a6.411,6.411,0,0,1-3.59-1.3,5.256,5.256,0,0,1-2.154-4.479,4.862,4.862,0,0,1,2.5-4.307,6.188,6.188,0,0,1,3.213-1.128c1.06-.034,1.778,0,2.256,0-.068-.137-.1-.342-.171-.513l-3.248-28.238v-.068a43.008,43.008,0,0,0-12-22.29,38.164,38.164,0,0,0-6.085-4.888h-.034l-2.564-1.47a5.554,5.554,0,0,0-.923-.513v92.133h.068v.069H136.2c.992,4.615,3.692,8.615,8.1,12.1a32.192,32.192,0,0,1,9.265,11.9,31.338,31.338,0,0,1,9.059-11.9c4.41-3.487,7.111-7.487,8.137-12.1H192.1s0-.069-.034-.069h.1V109.5a5.612,5.612,0,0,0-.921.513" transform="translate(-114.8 -96.957)"/>
        <path id="path21" class="cls-1" d="M189.986,104.481h0" transform="translate(-151.387 -100.618)"/>
        <path id="path23" class="cls-1" d="M192.051,117.062a16.564,16.564,0,0,1-1.5,1.06,26.405,26.405,0,0,0-4.2,3.521,40.612,40.612,0,0,0-11.35,21.059l-3.008,26.085c.1,0,.273.034.513.068a12.65,12.65,0,0,1,3.521,1.538,6.863,6.863,0,0,1,3.555,6.188,7.429,7.429,0,0,1-3.077,6.29,8.737,8.737,0,0,1-4.957,1.743c-2.291,0-3.521-.41-3.727-1.2,0-.068-.034-.1-.034-.171a49.724,49.724,0,0,1-4.888-9.2v-.068a51.522,51.522,0,0,1-1.949-5.265l-3.145.342c.308.957.65,1.914.991,2.906.137.41.239.752.342,1.026a1.689,1.689,0,0,1,.1.24,51.352,51.352,0,0,0,3.9,8.717c.923,1.435,1.538,2.427,1.88,2.974a3.51,3.51,0,0,0,.2.342.033.033,0,0,1-.034.034c-.24.1-.684.308-1.368.616a31.818,31.818,0,0,0-5.367,3.384,34.293,34.293,0,0,0-2.735,2.188v-.1c-.034.034-.034.034-.068.034a.033.033,0,0,1-.034-.034v.1c-.445-.41-1.333-1.128-2.735-2.188a31.883,31.883,0,0,0-5.4-3.384q-.975-.462-1.333-.616c-.034,0-.034,0-.034-.034a2.513,2.513,0,0,1,.2-.342c.308-.547.923-1.539,1.88-2.974a57.732,57.732,0,0,0,3.9-8.717.512.512,0,0,1,.1-.24c.1-.274.2-.615.342-1.026.342-.991.649-1.949.957-2.906a1.406,1.406,0,0,0,.1-.342c.034-.137.137-.376.239-.649l.239-.684a.034.034,0,0,1,.034-.034c.342-1.026.616-1.846.855-2.461.171-.479.41-1.026.684-1.743a16.021,16.021,0,0,1,.684,1.743c.24.615.547,1.436.889,2.461l.034.034.239.684c.1.274.171.513.239.649a2.817,2.817,0,0,1,.068.342l3.145-.342a50.535,50.535,0,0,1-1.812-6.666q-.466-2.234-.756-4.526a61.226,61.226,0,0,1-.475-7.678c.034-4.889.239-11.111.581-18.666.41-7.9.581-12.82.581-14.735a17.71,17.71,0,0,0-.615-4.992,22.361,22.361,0,0,0-1.743-5.094c-.479-.82-.786-1.368-.889-1.572a2.156,2.156,0,0,1-.2-.308c.034.068,0,.171-.1.308a9.767,9.767,0,0,0-1.026,1.778,20.823,20.823,0,0,0-1.607,4.888,17.672,17.672,0,0,0-.616,4.992c-.034,1.914.171,6.837.547,14.735.376,7.555.547,13.777.616,18.666a59.6,59.6,0,0,1-1.231,12.2,63.959,63.959,0,0,1-1.812,6.666c-.581,1.778-1.231,3.521-1.948,5.265,0,.034,0,.034-.034.068a47.833,47.833,0,0,1-4.855,9.2c-.034.068-.034.1-.068.171-.171.786-1.436,1.2-3.692,1.2a8.653,8.653,0,0,1-4.957-1.743,7.429,7.429,0,0,1-3.077-6.29,6.863,6.863,0,0,1,3.555-6.188,12.644,12.644,0,0,1,3.521-1.538,4.244,4.244,0,0,1,.513-.068L136.328,142.7a40.857,40.857,0,0,0-11.35-21.059,28,28,0,0,0-4.239-3.521,14.663,14.663,0,0,1-1.47-1.06V202.8a.244.244,0,0,0,.1.205.552.552,0,0,0,.239.137h19.281l.479-2.872c-.376,0-.786,0-1.231.034H124.055c-.478-.034-.889-.034-1.265-.068h-.41V179.9c-.034-.205-.034-.752-.034-1.641h-.034v.034h-.034v-.034h.068l5.128-.034v-2.975h-5.128v-.41c0-.342,0-.752.034-1.231V123.523a15.575,15.575,0,0,1,3.042,3.043l.923,1.231.034.068c.752,1.06,1.5,2.188,2.222,3.419a37.022,37.022,0,0,1,4.546,11.384c.034.034.034.068.034.137.615,5.094,1.538,12.649,2.769,22.6v.034l.1,1.06v.171c-.308.137-.684.274-1.128.478a9.589,9.589,0,0,0-2.325,1.47l.034.034h0l-.034-.034a.471.471,0,0,1-.137.1l-.034.034a9.4,9.4,0,0,0-3.316,5.23q-.052.256-.205.923-.051.154-.1.308c-.615.034-1.06.034-1.333.034v2.975h1.265c.171.547.308.991.376,1.333a9.719,9.719,0,0,0,5.333,6.666c0,.034.034.034.068.034a15.9,15.9,0,0,0,3.179,1.128h.068a7.846,7.846,0,0,0,1.71.274c.616.034,1.4.1,2.359.171-.513,1.368-.786,2.051-.786,2.051l3.111.547a8.269,8.269,0,0,1,.889-1.641c.342.171.513.239.41.171,3.726.991,6.085,2.5,7.043,4.513a12.647,12.647,0,0,1,1.573,5.06v.034c.034.375.034.923.034,1.709l-.1,2.872V214.87c-.444-.239-2.051-1.231-4.855-2.94-2.8-1.743-4.581-4.649-5.367-8.786h8.547c.615-.034,1.2,0,1.675,0l.1-2.872c-.444-.034-.991-.034-1.71-.034h-7.658c-.376,0-.82,0-1.435.034a32.028,32.028,0,0,1-.1-3.931,16.166,16.166,0,0,1,.479-4.205c.308-1.094.444-1.675.478-1.71l-3.111-.547a26.293,26.293,0,0,0-1.3,7.384c-.034,1.47-.068,2.461-.1,3.008h-.274l-.479,2.872a10.172,10.172,0,0,1,1.47,0c0,.034.034.171.034.274.513,4.342,2.906,8.1,7.179,11.418,4.1,3.145,6.8,6.188,8.068,9.128.034.034.034.068.068.137,1.2-2.974,3.863-6.085,8.034-9.264,4.273-3.316,6.666-7.076,7.179-11.418a.593.593,0,0,1,.034-.274,10.224,10.224,0,0,1,1.47,0l-.478-2.872h-.308c0-.547-.034-1.539-.068-3.008a25.209,25.209,0,0,0-1.333-7.384l-3.077.547c0,.034.171.616.479,1.71a19.822,19.822,0,0,1,.479,4.205,25.484,25.484,0,0,1-.137,3.931c-.581-.034-1.06-.034-1.4-.034h-7.658c-.718,0-1.3,0-1.743.034l.137,2.872c.478,0,1.026-.034,1.675,0h8.546c-.786,4.137-2.6,7.043-5.4,8.786-2.8,1.71-4.41,2.7-4.82,2.94V203.145l-.137-2.872c.034-.787.034-1.334.069-1.709v-.034a13.073,13.073,0,0,1,1.538-5.06q1.487-3.026,7.077-4.513c-.1.068.034,0,.41-.171a10.8,10.8,0,0,1,.889,1.641l3.077-.547s-.239-.684-.752-2.051c.923-.068,1.71-.137,2.359-.171a8.166,8.166,0,0,0,1.71-.274h.068a14.883,14.883,0,0,0,3.145-1.128.125.125,0,0,0,.1-.034,9.669,9.669,0,0,0,5.3-6.666,9.154,9.154,0,0,1,.41-1.333h1.265v-2.975c-.274,0-.718,0-1.333-.034q-.052-.154-.1-.308a8.081,8.081,0,0,0-.24-.923,9.051,9.051,0,0,0-3.316-5.23v-.034c-.068-.034-.1-.068-.171-.1v.034h0v-.034a8.854,8.854,0,0,0-2.29-1.47h-.034c-.445-.2-.82-.342-1.128-.478a.374.374,0,0,1,.034-.171l.1-1.06V165.4c1.231-9.948,2.154-17.5,2.769-22.6v-.137a37.156,37.156,0,0,1,4.581-11.384c.718-1.231,1.47-2.359,2.222-3.419l.034-.068.923-1.231a14.7,14.7,0,0,1,3.043-3.043v51.724h-5.094v2.975l5.128.034h.069v.034h-.034v-.034h-.034c-.034.889-.034,1.435-.034,1.641v20.341h-.445c-.342.034-.752.034-1.231.068H173.179c-.478-.034-.889-.034-1.231-.034l.479,2.872h19.282a.864.864,0,0,0,.239-.137.245.245,0,0,0,.1-.205v-85.74" transform="translate(-116.975 -100.618)"/>
        <path id="path25" class="cls-1" d="M239.878,148.632a36.7,36.7,0,0,0-2.188,3.419,35.625,35.625,0,0,0-4.444,11.008c0,.034-.171,1.436-.479,4.239-.342,2.769-.82,6.735-1.47,11.863-.479,3.931-.821,6.29-.957,7.008a1.411,1.411,0,0,1,.513.137l.889-.82c1.231-9.743,2.12-17.127,2.735-22.187a35.164,35.164,0,0,1,4.273-10.632,33.209,33.209,0,0,1,1.949-3.043v43.588h-2.325a11.662,11.662,0,0,0-3.966-5.982,11.068,11.068,0,0,0-2.667-1.743l-.889.82a17.6,17.6,0,0,1,3.179,2.29,8.1,8.1,0,0,1,3.008,4.513l.308,1.333h4.581v-46.7a13.772,13.772,0,0,0,0-1.71c-.239.274-.616.718-1.128,1.368l-.923,1.231" transform="translate(-171.024 -120.838)"/>
        <path id="path27" class="cls-1" d="M128.431,147.4c-.478-.649-.855-1.093-1.094-1.368a8.361,8.361,0,0,0-.034,1.71v46.7h4.615l.308-1.333A7.863,7.863,0,0,1,135.2,188.6a16.215,16.215,0,0,1,3.214-2.29l-.924-.82a11.637,11.637,0,0,0-2.632,1.743,11.454,11.454,0,0,0-3.966,5.982h-2.325V149.624c.649.957,1.3,1.949,1.948,3.043A36.062,36.062,0,0,1,134.79,163.3c.581,5.06,1.5,12.444,2.7,22.187l.924.82a1.409,1.409,0,0,1,.513-.137c-.171-.718-.479-3.077-.957-7.008-.65-5.128-1.128-9.094-1.47-11.863-.308-2.8-.478-4.205-.478-4.239a35.632,35.632,0,0,0-4.444-11.008,30.942,30.942,0,0,0-2.222-3.419l-.924-1.231" transform="translate(-120.873 -120.839)"/>
        <path id="path29" class="cls-1" d="M182.212,223.585a1.481,1.481,0,0,0-.034-.171v.307c-.274.786-.445,1.436-.616,1.914l-.308.957-.171.649h-.034c-.445,1.4-.923,2.8-1.436,4.239v-.034a48.292,48.292,0,0,1-4.273,9.333,20.842,20.842,0,0,1-1.47,1.983q.256.1,1.333.616c.684.342,2.017,1.162,4.034,2.5,1.368.889,2.359,1.538,2.94,1.88v.034h.1v-.034c.581-.342,1.572-.991,2.94-1.88,2.017-1.333,3.35-2.154,4.034-2.5l-.513-.924a30.518,30.518,0,0,0-6.461,4.1v-.068c-.034,0-.034,0-.068.034a.033.033,0,0,0-.034-.034v.068a31.4,31.4,0,0,0-6.461-4.1,54.617,54.617,0,0,0,5.06-10.563c.068-.205.137-.41.239-.649a.1.1,0,0,1,.034-.068q.41-1.18,1.128-3.384v.308c0-.034.034-.1.034-.137.034.034.034.1.068.137v-.308q.719,2.2,1.128,3.384c0,.034,0,.068.034.068a3.634,3.634,0,0,0,.239.649,54.589,54.589,0,0,0,5.059,10.563l.513.924a13.9,13.9,0,0,1,1.333-.616,16.054,16.054,0,0,1-1.47-1.983,46.27,46.27,0,0,1-4.273-9.333v.034c-.513-1.435-.992-2.837-1.436-4.239h-.034l-.171-.649-.308-.957c-.171-.479-.376-1.128-.615-1.914v-.308c-.033.034-.033.1-.068.171" transform="translate(-143.545 -158.493)"/>
        <path id="path31" class="cls-1" d="M132.281,251.586c-.171-.616-.308-1.06-.376-1.4h-4.546c0,.171-.034.342-.034.616v19.384h15.247c.034-.991.1-2.29.205-3.966a23.026,23.026,0,0,1,.889-5.162l-1.094-.274a30.46,30.46,0,0,0-1.128,8.171H128.589V251.415h2.325a11.733,11.733,0,0,0,6.359,7.692,19.284,19.284,0,0,0,3.795,1.4c.581.1,1.094.2,1.5.273l1.094.274c.171-.616.308-1.094.41-1.47-.137.034-.445.034-.991.068a15.412,15.412,0,0,1-2.6-.376,12.392,12.392,0,0,1-4.581-2.461,9.779,9.779,0,0,1-3.624-5.231" transform="translate(-120.894 -171.52)"/>
        <path id="path33" class="cls-1" d="M168.995,271.675a8.406,8.406,0,0,0-.684,2.154,18.112,18.112,0,0,0-.513,4.479,11.575,11.575,0,0,0,.068,2.222h8.649v-.308a11.827,11.827,0,0,0-1.333-4.957l-1.2.41a12.526,12.526,0,0,1,1.333,3.59H168.96a24.563,24.563,0,0,1,.821-6.359,5.188,5.188,0,0,1,4.2,2.769l1.2-.41c-.957-1.983-2.837-3.214-5.743-3.658a.523.523,0,0,0-.445.068" transform="translate(-140.583 -181.935)"/>
        <path id="path35" class="cls-1" d="M220.352,259.585c.1.376.239.855.41,1.47l1.06-.274c.444-.068.957-.171,1.538-.273a19,19,0,0,0,3.761-1.4,11.784,11.784,0,0,0,6.393-7.692h2.325v17.538H222.984a31.839,31.839,0,0,0-1.162-8.171l-1.06.274a25.119,25.119,0,0,1,.889,5.162c.1,1.675.171,2.974.205,3.966h15.213v-20h-4.547c-.1.342-.2.786-.376,1.4a9.961,9.961,0,0,1-3.624,5.23,12.651,12.651,0,0,1-4.581,2.461,15.886,15.886,0,0,1-2.6.376,9.365,9.365,0,0,1-.991-.068" transform="translate(-166.164 -171.52)"/>
        <path id="path37" class="cls-1" d="M195.447,280.221a.954.954,0,0,0,.034.308h8.649a15.723,15.723,0,0,0,.068-2.222,18.116,18.116,0,0,0-.513-4.479,6.523,6.523,0,0,0-.718-2.154.45.45,0,0,0-.41-.068c-2.906.444-4.821,1.675-5.744,3.658l1.2.41a5.191,5.191,0,0,1,4.205-2.769,24.559,24.559,0,0,1,.82,6.359h-6.393a14.07,14.07,0,0,1,1.368-3.59l-1.2-.41a12.518,12.518,0,0,0-1.367,4.957" transform="translate(-154.044 -181.935)"/>
        <path id="path39" class="cls-1" d="M196.03,298.514a3.579,3.579,0,0,0-.616,0l-.034,8.615a12.47,12.47,0,0,0,7.966-8.615H196.03l.616,1.094h5.093l.1-.308-.068.308a13.169,13.169,0,0,1-1.572,2.461,15.324,15.324,0,0,1-3.555,3.214v-5.674" transform="translate(-154.012 -195.031)"/>
        <path id="path41" class="cls-1" d="M177.34,298.514a3.65,3.65,0,0,0-.615,0l-.616,1.094v5.675a15.591,15.591,0,0,1-3.59-3.214,14.612,14.612,0,0,1-1.539-2.461l-.068-.308.068.308h5.128l.616-1.094h-7.316a12.491,12.491,0,0,0,7.931,8.615v-8.615" transform="translate(-141.374 -195.031)"/>
      </g>
    </g>
  </g>
</svg>
