<?xml version="1.0"?>
<svg xmlns="http://www.w3.org/2000/svg" height="512px" viewBox="0 0 512 512" width="512px"><path d="m482 152.578125v-17.578125c0-24.8125-20.1875-45-45-45h-23.785156l-85.609375-85.605469c0-.003906 0-.003906 0-.003906-2.679688-2.675781-6.5625-4.390625-10.609375-4.390625h-211.996094c-8.285156 0-15 6.714844-15 15v75h-15c-24.8125 0-45 20.1875-45 45v17.578125c-17.460938 6.195313-30 22.867187-30 42.421875v151c0 24.8125 20.1875 45 45 45h45v106c0 8.285156 6.714844 15 15 15h302c8.285156 0 15-6.714844 15-15v-106h45c24.8125 0 45-20.1875 45-45v-151c0-19.554688-12.539062-36.226562-30-42.421875zm-30-17.578125v15h-30v-30h15c8.269531 0 15 6.730469 15 15zm-120-83.785156 38.785156 38.785156h-38.785156zm-212-21.214844h182v75c0 8.285156 6.714844 15 15 15h75v90h-272zm-45 90h15v30h-30v-15c0-8.269531 6.730469-15 15-15zm317 362h-272v-121h272zm90-136c0 8.269531-6.730469 15-15 15h-45v-15c0-8.285156-6.714844-15-15-15h-302c-8.285156 0-15 6.714844-15 15v15h-45c-8.269531 0-15-6.730469-15-15v-151c0-8.269531 6.730469-15 15-15h45v30h-15c-8.285156 0-15 6.714844-15 15s6.714844 15 15 15h362c8.285156 0 15-6.714844 15-15s-6.714844-15-15-15h-15v-30h45c8.269531 0 15 6.730469 15 15zm0 0" fill="#003fac"/><path d="m451.972656 286c0 8.285156-6.71875 15-15 15-8.285156 0-15-6.714844-15-15s6.714844-15 15-15c8.28125 0 15 6.714844 15 15zm0 0" fill="#003fac"/></svg>
