<svg xmlns="http://www.w3.org/2000/svg" viewBox="0 0 24 24">
  <defs>
    <style>
      .cls-1 {
        fill: #707b87;
      }
    </style>
  </defs>
  <path id="print" class="cls-1" d="M-7398.079-2149a.7.7,0,0,1-.7-.7v-4.969h-2.109a2.112,2.112,0,0,1-2.109-2.109v-7.078a2.113,2.113,0,0,1,1.406-1.989v-.824a2.112,2.112,0,0,1,2.109-2.109h.7v-3.516a.7.7,0,0,1,.7-.7h9.937a.714.714,0,0,1,.5.206h0l4.013,4.013h1.115a2.112,2.112,0,0,1,2.109,2.109v.824a2.112,2.112,0,0,1,1.406,1.989v7.078a2.112,2.112,0,0,1-2.109,2.109h-2.109v4.969a.7.7,0,0,1-.7.7Zm.7-1.406h12.75v-5.672h-12.75Zm13.453-7.078a.7.7,0,0,1,.7.7v.7h2.109a.7.7,0,0,0,.7-.7v-7.078a.7.7,0,0,0-.7-.7h-2.109v1.406h.7a.7.7,0,0,1,.7.7.7.7,0,0,1-.7.7h-16.969a.7.7,0,0,1-.7-.7.7.7,0,0,1,.7-.7h.7v-1.406h-2.109a.7.7,0,0,0-.7.7v7.078a.7.7,0,0,0,.7.7h2.109v-.7a.7.7,0,0,1,.7-.7Zm-13.453-5.672h12.75v-4.219h-3.516a.7.7,0,0,1-.7-.7v-3.516h-8.531Zm14.156-2.812h1.406v-.7a.7.7,0,0,0-.7-.7h-.7Zm-16.969-.7v.7h1.406v-1.406h-.7A.7.7,0,0,0-7400.188-2166.672Zm12.75-2.109h1.818l-1.818-1.818Zm4.217,9.188a.7.7,0,0,1,.7-.7.7.7,0,0,1,.7.7.7.7,0,0,1-.7.7A.7.7,0,0,1-7383.221-2159.594Z" transform="translate(7403 2173)"/>
</svg>
