<svg xmlns="http://www.w3.org/2000/svg" viewBox="0 0 18 22.48">
  <defs>
    <style>
      .cls-1 {
        fill: #707b87;
      }
    </style>
  </defs>
  <path id="share" class="cls-1" d="M14.446,15.373a3.54,3.54,0,0,0-2.464,1L6.789,12.7a3.54,3.54,0,0,0,0-2.93l5.193-3.664a3.548,3.548,0,1,0-.773-1.092L6.017,8.683a3.554,3.554,0,1,0,0,5.115l5.192,3.664a3.553,3.553,0,1,0,3.237-2.089Zm0,5.769a2.216,2.216,0,1,1,2.216-2.216A2.218,2.218,0,0,1,14.446,21.142ZM3.553,13.455A2.216,2.216,0,1,1,5.769,11.24a2.218,2.218,0,0,1-2.216,2.216Zm8.677-9.9a2.216,2.216,0,1,1,2.216,2.216A2.218,2.218,0,0,1,12.23,3.554Zm0,0" transform="translate(0)"/>
</svg>
