<svg xmlns="http://www.w3.org/2000/svg" viewBox="0 0 24 18.938">
  <defs>
    <style>
      .cls-1 {
        fill: #707b87;
      }
    </style>
  </defs>
  <path id="text" class="cls-1" d="M-2449.769-2158.254a1.192,1.192,0,0,1,1.192-1.192,1.192,1.192,0,0,1,1.192,1.192,1.192,1.192,0,0,1-1.192,1.192A1.193,1.193,0,0,1-2449.769-2158.254Zm-18.04,1.192a1.192,1.192,0,0,1-1.192-1.192,1.192,1.192,0,0,1,1.192-1.192h14.463a1.192,1.192,0,0,1,1.192,1.192,1.192,1.192,0,0,1-1.192,1.192Zm0-5.518a1.192,1.192,0,0,1-1.192-1.192,1.192,1.192,0,0,1,1.192-1.192h21.616a1.192,1.192,0,0,1,1.192,1.192,1.192,1.192,0,0,1-1.192,1.192Zm0-5.518a1.192,1.192,0,0,1-1.192-1.192,1.192,1.192,0,0,1,1.192-1.192h21.616a1.192,1.192,0,0,1,1.192,1.192,1.192,1.192,0,0,1-1.192,1.192Zm0-5.518a1.192,1.192,0,0,1-1.192-1.192,1.192,1.192,0,0,1,1.192-1.192h21.616a1.192,1.192,0,0,1,1.192,1.192,1.192,1.192,0,0,1-1.192,1.192Z" transform="translate(2469.001 2176)"/>
</svg>
