<svg xmlns="http://www.w3.org/2000/svg" viewBox="0 0 32 18.258">
  <defs>
    <style>
      .cls-1 {
        fill: #fff;
      }
    </style>
  </defs>
  <path id="vision" class="cls-1" d="M9.771,16.908A24.133,24.133,0,0,1,4.788,13.99,28.833,28.833,0,0,1,.216,9.757a.941.941,0,0,1,0-1.2A28.819,28.819,0,0,1,4.788,4.325,24.1,24.1,0,0,1,9.771,1.407,16.868,16.868,0,0,1,14.244.17a9.158,9.158,0,0,1,3.512,0,16.871,16.871,0,0,1,4.473,1.237,24.109,24.109,0,0,1,4.983,2.918,28.819,28.819,0,0,1,4.572,4.234.941.941,0,0,1,0,1.2,28.833,28.833,0,0,1-4.572,4.233,24.131,24.131,0,0,1-4.983,2.918A15.95,15.95,0,0,1,16,18.258,15.949,15.949,0,0,1,9.771,16.908ZM14.9,1.965A7.219,7.219,0,1,0,23.218,9.1h0A7.229,7.229,0,0,0,17.1,1.965c-.363-.034-.73-.053-1.1-.053S15.263,1.932,14.9,1.965ZM25.1,9.1a9.046,9.046,0,0,1-1.523,5.034,24.349,24.349,0,0,0,2.472-1.622A28.826,28.826,0,0,0,29.8,9.158,28.881,28.881,0,0,0,26.049,5.8a24.87,24.87,0,0,0-2.357-1.562A9.044,9.044,0,0,1,25.1,9.1ZM5.951,5.8A28.9,28.9,0,0,0,2.2,9.158h0a28.876,28.876,0,0,0,3.749,3.354,24.349,24.349,0,0,0,2.472,1.622,9.08,9.08,0,0,1-.115-9.891A24.866,24.866,0,0,0,5.951,5.8Zm4.8,3.295a5.252,5.252,0,0,1,6.78-5.023.94.94,0,0,1,.658,1.033A1.592,1.592,0,0,0,19.763,6.93a1.709,1.709,0,0,0,.228-.016.94.94,0,0,1,1.033.658A5.251,5.251,0,1,1,10.749,9.1Zm1.882,0a3.369,3.369,0,0,0,6.739,0c0-.1,0-.209-.014-.312a3.482,3.482,0,0,1-3.043-3.043Q16.157,5.73,16,5.73A3.373,3.373,0,0,0,12.631,9.1Z"/>
</svg>
