<svg xmlns="http://www.w3.org/2000/svg" viewBox="0 0 48 27.387">
  <defs>
    <style>
      .cls-1 {
        fill: #003fac;
      }
    </style>
  </defs>
  <path id="vision-blue" class="cls-1" d="M14.656,25.362a36.2,36.2,0,0,1-7.474-4.377,43.249,43.249,0,0,1-6.858-6.35,1.411,1.411,0,0,1,0-1.8A43.228,43.228,0,0,1,7.182,6.487,36.156,36.156,0,0,1,14.656,2.11,25.3,25.3,0,0,1,21.366.255a13.737,13.737,0,0,1,5.268,0,25.306,25.306,0,0,1,6.71,1.855,36.163,36.163,0,0,1,7.474,4.377,43.228,43.228,0,0,1,6.858,6.351,1.411,1.411,0,0,1,0,1.8,43.25,43.25,0,0,1-6.858,6.35,36.2,36.2,0,0,1-7.474,4.377A23.925,23.925,0,0,1,24,27.387,23.923,23.923,0,0,1,14.656,25.362ZM22.349,2.948a10.828,10.828,0,1,0,12.478,10.7h0a10.844,10.844,0,0,0-9.177-10.7c-.545-.051-1.1-.079-1.651-.079S22.894,2.9,22.349,2.948Zm15.3,10.7A13.569,13.569,0,0,1,35.366,21.2a36.523,36.523,0,0,0,3.708-2.434,43.24,43.24,0,0,0,5.623-5.03,43.321,43.321,0,0,0-5.623-5.029,37.306,37.306,0,0,0-3.536-2.344A13.567,13.567,0,0,1,37.65,13.649ZM8.927,8.707A43.346,43.346,0,0,0,3.3,13.736h0a43.314,43.314,0,0,0,5.623,5.03A36.523,36.523,0,0,0,12.634,21.2a13.621,13.621,0,0,1-.172-14.837A37.3,37.3,0,0,0,8.927,8.707Zm7.2,4.942a7.878,7.878,0,0,1,10.17-7.535,1.41,1.41,0,0,1,.987,1.549,2.388,2.388,0,0,0,2.365,2.731,2.563,2.563,0,0,0,.342-.024,1.41,1.41,0,0,1,1.549.986,7.877,7.877,0,1,1-15.413,2.293Zm2.822,0a5.054,5.054,0,0,0,10.108,0c0-.156-.007-.313-.022-.469a5.222,5.222,0,0,1-4.564-4.564Q24.235,8.6,24,8.6A5.06,5.06,0,0,0,18.946,13.649Z"/>
</svg>
